# xmcd
#
# Track frame offsets: 
#        150
#        13322
#        26546
#        39761
#        53156
#        66273
#        79168
#        91985
#        104816
#        117618
#        129940
#        143249
#        156181
#        169158
#        182130
#        194978
#        208083
#        221125
#        234048
#        246974
#        259743
#        273014
#        286252
#        299745
#        312652
#
# Disc length: 4374 seconds
#
# Revision: 0
# Processed by: cddbd v1.5.1PL0 Copyright (c) Steve Scherf et al.
# Submitted via: ExactAudioCopy v0.95a5
#
DISCID=86111419
DTITLE=Various Artist - Top Hits Top 100 Vol3 CD3
DYEAR=1998
DGENRE=Beat
TTITLE0=2Unlimited - Wanna Get Up
TTITLE1=Yver Deruyter - The Rebel
TTITLE2=T-Spoon - Tom's Party
TTITLE3=Mobbs IV Real - Missing You
TTITLE4=Sash! - Ecuador
TTITLE5=DJ Puff&Decon - Work This MF
TTITLE6=Do Brazil - Ritmo Tropical
TTITLE7=Touch Of Joy - Wild
TTITLE8=Lutricia Mc Neal - Stranded
TTITLE9=Course - Ain't Nobody
TTITLE10=Hi-Dr8 - Unbreak My Heart
TTITLE11=Rosie Gaines - Closer Than Close
TTITLE12=Mr. Joy - Everbody Say Hou... Hou! Hou!
TTITLE13=Nigel and Marvin - Follow The Leader
TTITLE14=Alana Dante - Take Me For A Ride
TTITLE15=Ultra Naté - Free
TTITLE16=20 Fingers - Lick It
TTITLE17=Faithless - Salva Mea
TTITLE18=C-12 - Life
TTITLE19=DJ Bo and Phat Butt Crew - Going Back To My Roots
TTITLE20=Technotronic - Get Up (The Sequel)
TTITLE21=DJ Looney Tune - Jumpin' and Pumpin'
TTITLE22=Les Sauvages - Tainted Love
TTITLE23=Red 5 - Da Beat Goes
TTITLE24=Mr. Whiteman - Whiteman's World
EXTD=
EXTT0=
EXTT1=
EXTT2=
EXTT3=
EXTT4=
EXTT5=
EXTT6=
EXTT7=
EXTT8=
EXTT9=
EXTT10=
EXTT11=
EXTT12=
EXTT13=
EXTT14=
EXTT15=
EXTT16=
EXTT17=
EXTT18=
EXTT19=
EXTT20=
EXTT21=
EXTT22=
EXTT23=
EXTT24=
PLAYORDER=
